<?xml version="1.0" standalone="no"?>
<!DOCTYPE svg PUBLIC "-//W3C//DTD SVG 20010904//EN"
 "http://www.w3.org/TR/2001/REC-SVG-20010904/DTD/svg10.dtd">
<svg version="1.0" xmlns="http://www.w3.org/2000/svg"
 width="200.000000pt" height="200.000000pt" viewBox="0 0 200.000000 200.000000"
 preserveAspectRatio="xMidYMid meet">
<metadata>
Created by potrace 1.14, written by Peter Selinger 2001-2017
</metadata>
<g transform="translate(0.000000,200.000000) scale(0.100000,-0.100000)"
fill="#000000" stroke="none">
<path d="M255 1326 c-97 -31 -172 -96 -213 -185 -22 -46 -26 -71 -27 -141 0
-73 4 -93 27 -140 37 -74 98 -136 166 -168 48 -23 71 -27 142 -27 76 0 93 4
151 32 l66 33 62 -32 c51 -26 74 -32 142 -34 44 -2 92 2 107 8 56 22 78 33
100 50 22 16 25 16 40 2 39 -39 104 -58 197 -58 88 1 141 15 196 55 13 10 30
5 85 -22 62 -31 77 -34 154 -34 117 1 190 37 272 135 68 81 83 230 35 343 -7
15 -15 27 -19 27 -5 0 -8 6 -8 13 0 22 -79 95 -129 119 -54 26 -57 27 -137 35
-66 6 -107 -3 -190 -45 l-52 -25 -28 20 c-54 37 -97 48 -184 48 -84 -1 -135
-16 -192 -57 -15 -10 -22 -10 -40 1 -120 76 -274 80 -377 8 l-35 -24 -34 24
c-73 49 -192 66 -277 39z m187 -65 c16 -6 39 -18 53 -27 l24 -16 -24 -36 c-57
-88 -67 -225 -24 -318 13 -27 29 -55 37 -63 12 -12 11 -17 -10 -33 -62 -48
-183 -57 -263 -18 -144 70 -201 237 -130 378 19 37 69 92 84 92 5 0 11 5 13
11 2 6 28 19 58 29 57 19 134 20 182 1z m456 -12 c26 -12 48 -23 49 -24 2 -1
-11 -27 -28 -58 -16 -31 -31 -66 -32 -77 -1 -11 -4 -20 -7 -20 -10 0 -3 -122
9 -166 6 -23 23 -58 37 -79 l26 -39 -24 -18 c-35 -28 -117 -48 -170 -43 -47 5
-138 39 -138 51 0 4 15 36 32 72 42 85 48 184 16 271 -12 31 -25 58 -29 59 -5
2 -9 10 -9 17 0 7 -5 15 -12 17 -17 6 52 46 98 57 57 13 128 5 182 -20z m394
17 c21 -5 42 -14 49 -22 6 -8 18 -14 25 -14 8 0 14 -7 14 -15 0 -8 -3 -15 -8
-15 -6 0 -40 -65 -47 -90 -24 -83 -23 -159 3 -223 7 -16 12 -32 12 -36 0 -5
10 -21 22 -36 l22 -28 -29 -23 c-16 -13 -31 -21 -34 -19 -2 3 -11 -1 -19 -7
-25 -22 -151 -14 -204 11 -27 13 -48 27 -48 32 0 5 11 27 24 48 42 66 56 146
41 231 -8 47 -41 126 -56 136 -27 16 27 57 101 77 21 6 88 2 132 -7z m472 -16
c47 -22 126 -100 126 -124 0 -8 5 -16 11 -18 16 -5 32 -128 17 -128 -5 0 -5
-8 0 -17 6 -9 6 -24 2 -32 -4 -9 -18 -37 -31 -63 -13 -26 -26 -45 -30 -42 -4
2 -10 -4 -14 -13 -7 -22 -78 -68 -125 -80 -39 -11 -165 -5 -165 7 0 1 -8 3
-18 5 -19 4 -57 33 -57 45 0 3 8 15 18 26 28 30 54 110 54 167 0 80 -6 107
-37 172 -17 33 -31 63 -33 68 -2 4 3 7 12 7 9 0 16 4 16 9 0 15 103 39 158 36
29 -2 72 -13 96 -25z m-1168 -125 c8 -18 16 -39 18 -47 1 -7 4 -18 8 -23 20
-32 -12 -176 -47 -211 -14 -14 -18 -10 -42 42 -19 42 -26 73 -25 113 1 80 40
179 64 165 4 -3 15 -20 24 -39z m436 -8 c18 -33 23 -59 23 -117 0 -58 -5 -84
-23 -117 -12 -23 -26 -44 -30 -47 -13 -8 -52 68 -58 110 -2 21 -6 39 -8 41
-16 16 47 189 65 178 5 -4 19 -25 31 -48z m438 -12 c33 -79 18 -217 -29 -259
-17 -15 -19 -13 -42 36 -33 71 -33 173 0 241 20 40 26 46 39 35 8 -7 22 -31
32 -53z"/>
</g>
</svg>
